<?xml version="1.0" encoding="UTF-8"?>
<svg xmlns="http://www.w3.org/2000/svg" xmlns:xlink="http://www.w3.org/1999/xlink" width="37.5pt" height="37.499999pt" viewBox="0 0 37.5 37.499999" version="1.2">
<defs>
<clipPath id="clip1">
  <path d="M 0 0 L 37.007812 0 L 37.007812 37.007812 L 0 37.007812 Z M 0 0 "/>
</clipPath>
<clipPath id="clip2">
  <path d="M 8 8 L 37.007812 8 L 37.007812 37.007812 L 8 37.007812 Z M 8 8 "/>
</clipPath>
</defs>
<g id="surface1">
<g clip-path="url(#clip1)" clip-rule="nonzero">
<path style=" stroke:none;fill-rule:nonzero;fill:rgb(99.21875%,51.368713%,41.178894%);fill-opacity:1;" d="M 37.5 18.75 C 37.5 19.363281 37.46875 19.976562 37.410156 20.585938 C 37.347656 21.199219 37.257812 21.804688 37.140625 22.40625 C 37.019531 23.011719 36.871094 23.605469 36.691406 24.191406 C 36.515625 24.78125 36.308594 25.359375 36.074219 25.925781 C 35.835938 26.492188 35.574219 27.046875 35.285156 27.589844 C 34.996094 28.128906 34.679688 28.65625 34.339844 29.167969 C 34 29.675781 33.632812 30.171875 33.242188 30.644531 C 32.855469 31.121094 32.441406 31.574219 32.007812 32.007812 C 31.574219 32.441406 31.121094 32.855469 30.644531 33.242188 C 30.171875 33.632812 29.675781 34 29.167969 34.339844 C 28.65625 34.679688 28.128906 34.996094 27.589844 35.285156 C 27.046875 35.574219 26.492188 35.835938 25.925781 36.074219 C 25.359375 36.308594 24.78125 36.515625 24.191406 36.691406 C 23.605469 36.871094 23.011719 37.019531 22.40625 37.140625 C 21.804688 37.257812 21.199219 37.347656 20.585938 37.410156 C 19.976562 37.46875 19.363281 37.5 18.75 37.5 C 18.136719 37.5 17.523438 37.46875 16.914062 37.410156 C 16.300781 37.347656 15.695312 37.257812 15.09375 37.140625 C 14.488281 37.019531 13.894531 36.871094 13.308594 36.691406 C 12.71875 36.515625 12.140625 36.308594 11.574219 36.074219 C 11.007812 35.835938 10.453125 35.574219 9.910156 35.285156 C 9.371094 34.996094 8.84375 34.679688 8.332031 34.339844 C 7.824219 34 7.328125 33.632812 6.855469 33.242188 C 6.378906 32.855469 5.925781 32.441406 5.492188 32.007812 C 5.058594 31.574219 4.644531 31.121094 4.257812 30.644531 C 3.867188 30.171875 3.5 29.675781 3.160156 29.167969 C 2.820312 28.65625 2.503906 28.128906 2.214844 27.589844 C 1.925781 27.046875 1.664062 26.492188 1.425781 25.925781 C 1.191406 25.359375 0.984375 24.78125 0.808594 24.191406 C 0.628906 23.605469 0.480469 23.011719 0.359375 22.40625 C 0.242188 21.804688 0.152344 21.199219 0.0898438 20.585938 C 0.03125 19.976562 0 19.363281 0 18.75 C 0 18.136719 0.03125 17.523438 0.0898438 16.914062 C 0.152344 16.300781 0.242188 15.695312 0.359375 15.09375 C 0.480469 14.488281 0.628906 13.894531 0.808594 13.308594 C 0.984375 12.71875 1.191406 12.140625 1.425781 11.574219 C 1.664062 11.007812 1.925781 10.453125 2.214844 9.910156 C 2.503906 9.371094 2.820312 8.84375 3.160156 8.332031 C 3.5 7.824219 3.867188 7.328125 4.257812 6.855469 C 4.644531 6.378906 5.058594 5.925781 5.492188 5.492188 C 5.925781 5.058594 6.378906 4.644531 6.855469 4.257812 C 7.328125 3.867188 7.824219 3.5 8.332031 3.160156 C 8.84375 2.820312 9.371094 2.503906 9.910156 2.214844 C 10.453125 1.925781 11.007812 1.664062 11.574219 1.425781 C 12.140625 1.191406 12.71875 0.984375 13.308594 0.808594 C 13.894531 0.628906 14.488281 0.480469 15.09375 0.359375 C 15.695312 0.242188 16.300781 0.152344 16.914062 0.0898438 C 17.523438 0.03125 18.136719 0 18.75 0 C 19.363281 0 19.976562 0.03125 20.585938 0.0898438 C 21.199219 0.152344 21.804688 0.242188 22.40625 0.359375 C 23.011719 0.480469 23.605469 0.628906 24.191406 0.808594 C 24.78125 0.984375 25.359375 1.191406 25.925781 1.425781 C 26.492188 1.664062 27.046875 1.925781 27.589844 2.214844 C 28.128906 2.503906 28.65625 2.820312 29.167969 3.160156 C 29.675781 3.5 30.171875 3.867188 30.644531 4.257812 C 31.121094 4.644531 31.574219 5.058594 32.007812 5.492188 C 32.441406 5.925781 32.855469 6.378906 33.242188 6.855469 C 33.632812 7.328125 34 7.824219 34.339844 8.332031 C 34.679688 8.84375 34.996094 9.371094 35.285156 9.910156 C 35.574219 10.453125 35.835938 11.007812 36.074219 11.574219 C 36.308594 12.140625 36.515625 12.71875 36.691406 13.308594 C 36.871094 13.894531 37.019531 14.488281 37.140625 15.09375 C 37.257812 15.695312 37.347656 16.300781 37.410156 16.914062 C 37.46875 17.523438 37.5 18.136719 37.5 18.75 Z M 37.5 18.75 "/>
</g>
<g clip-path="url(#clip2)" clip-rule="nonzero">
<path style=" stroke:none;fill-rule:nonzero;fill:rgb(91.758728%,39.608765%,32.159424%);fill-opacity:1;" d="M 37.253906 21.769531 L 23.953125 8.46875 L 11.613281 8.46875 C 11.425781 8.46875 11.242188 8.539062 11.101562 8.679688 C 10.957031 8.820312 10.886719 9.007812 10.886719 9.195312 L 10.886719 18.347656 L 9.351562 19.234375 L 8.582031 19.675781 L 10.886719 21.976562 L 10.886719 28.304688 C 10.886719 28.453125 10.929688 28.597656 11.015625 28.71875 L 11.199219 28.902344 L 19.765625 37.472656 C 28.632812 36.996094 35.863281 30.363281 37.253906 21.769531 Z M 37.253906 21.769531 "/>
</g>
<path style=" stroke:none;fill-rule:nonzero;fill:rgb(100%,100%,100%);fill-opacity:1;" d="M 26.613281 11.128906 L 26.613281 28.304688 C 26.613281 28.492188 26.542969 28.679688 26.398438 28.820312 C 26.257812 28.960938 26.074219 29.03125 25.886719 29.03125 L 11.613281 29.03125 C 11.425781 29.03125 11.242188 28.960938 11.101562 28.820312 C 10.957031 28.679688 10.886719 28.492188 10.886719 28.304688 L 10.886719 9.195312 C 10.886719 9.007812 10.957031 8.820312 11.101562 8.679688 C 11.242188 8.539062 11.425781 8.46875 11.613281 8.46875 L 23.953125 8.46875 Z M 26.613281 11.128906 "/>
<path style=" stroke:none;fill-rule:nonzero;fill:rgb(90.19928%,89.7995%,89.7995%);fill-opacity:1;" d="M 26.613281 11.128906 L 24.675781 11.128906 C 24.492188 11.128906 24.304688 11.058594 24.164062 10.917969 C 24.023438 10.773438 23.953125 10.589844 23.953125 10.402344 L 23.953125 8.46875 Z M 26.613281 11.128906 "/>
<path style=" stroke:none;fill-rule:nonzero;fill:rgb(79.998779%,79.60968%,79.219055%);fill-opacity:1;" d="M 13.546875 14.382812 L 23.953125 14.382812 L 23.953125 15.199219 L 13.546875 15.199219 Z M 13.546875 14.382812 "/>
<path style=" stroke:none;fill-rule:nonzero;fill:rgb(79.998779%,79.60968%,79.219055%);fill-opacity:1;" d="M 13.546875 16.011719 L 23.953125 16.011719 L 23.953125 16.828125 L 13.546875 16.828125 Z M 13.546875 16.011719 "/>
<path style=" stroke:none;fill-rule:nonzero;fill:rgb(28.62854%,31.369019%,34.118652%);fill-opacity:1;" d="M 13.546875 11.128906 L 18.75 11.128906 L 18.75 11.941406 L 13.546875 11.941406 Z M 13.546875 11.128906 "/>
<path style=" stroke:none;fill-rule:nonzero;fill:rgb(79.998779%,79.60968%,79.219055%);fill-opacity:1;" d="M 13.546875 12.757812 L 23.953125 12.757812 L 23.953125 13.570312 L 13.546875 13.570312 Z M 13.546875 12.757812 "/>
<path style=" stroke:none;fill-rule:nonzero;fill:rgb(79.998779%,79.60968%,79.219055%);fill-opacity:1;" d="M 13.546875 25.78125 L 23.953125 25.78125 L 23.953125 26.59375 L 13.546875 26.59375 Z M 13.546875 25.78125 "/>
<path style=" stroke:none;fill-rule:nonzero;fill:rgb(79.998779%,79.60968%,79.219055%);fill-opacity:1;" d="M 13.546875 24.152344 L 23.953125 24.152344 L 23.953125 24.964844 L 13.546875 24.964844 Z M 13.546875 24.152344 "/>
<path style=" stroke:none;fill-rule:nonzero;fill:rgb(79.998779%,79.60968%,79.219055%);fill-opacity:1;" d="M 13.546875 22.523438 L 23.953125 22.523438 L 23.953125 23.339844 L 13.546875 23.339844 Z M 13.546875 22.523438 "/>
<path style=" stroke:none;fill-rule:nonzero;fill:rgb(99.609375%,80.778503%,39.99939%);fill-opacity:1;" d="M 10.886719 18.347656 L 26.613281 18.347656 L 26.613281 19.230469 L 10.886719 19.230469 Z M 10.886719 18.347656 "/>
<path style=" stroke:none;fill-rule:nonzero;fill:rgb(96.078491%,70.979309%,25.099182%);fill-opacity:1;" d="M 10.886719 19.230469 L 26.613281 19.230469 L 26.613281 20.117188 L 10.886719 20.117188 Z M 10.886719 19.230469 "/>
<path style=" stroke:none;fill-rule:nonzero;fill:rgb(92.549133%,63.919067%,20.388794%);fill-opacity:1;" d="M 10.886719 20.117188 L 26.613281 20.117188 L 26.613281 21.003906 L 10.886719 21.003906 Z M 10.886719 20.117188 "/>
<path style=" stroke:none;fill-rule:nonzero;fill:rgb(100%,100%,100%);fill-opacity:1;" d="M 10.886719 21.003906 L 9.351562 20.117188 L 9.351562 19.234375 L 10.886719 18.347656 Z M 10.886719 21.003906 "/>
<path style=" stroke:none;fill-rule:nonzero;fill:rgb(90.19928%,89.7995%,89.7995%);fill-opacity:1;" d="M 10.886719 21.003906 L 10.886719 20.117188 L 9.351562 19.824219 L 9.351562 20.117188 Z M 10.886719 21.003906 "/>
<path style=" stroke:none;fill-rule:nonzero;fill:rgb(28.62854%,31.369019%,34.118652%);fill-opacity:1;" d="M 9.351562 20.117188 L 8.585938 19.675781 L 9.351562 19.234375 Z M 9.351562 20.117188 "/>
<path style=" stroke:none;fill-rule:nonzero;fill:rgb(90.19928%,89.7995%,89.7995%);fill-opacity:1;" d="M 26.613281 20.117188 L 27.5 20.117188 L 27.5 21.003906 L 26.613281 21.003906 Z M 26.613281 20.117188 "/>
<path style=" stroke:none;fill-rule:nonzero;fill:rgb(100%,100%,100%);fill-opacity:1;" d="M 26.613281 18.347656 L 27.5 18.347656 L 27.5 20.117188 L 26.613281 20.117188 Z M 26.613281 18.347656 "/>
<path style=" stroke:none;fill-rule:nonzero;fill:rgb(20.388794%,23.139954%,26.269531%);fill-opacity:1;" d="M 27.707031 21.003906 L 27.5 21.003906 L 27.5 20.117188 L 27.707031 20.117188 C 28.042969 20.117188 28.386719 19.988281 28.644531 19.730469 C 28.789062 19.582031 28.894531 19.414062 28.957031 19.230469 C 29.007812 19.375 29.035156 19.523438 29.035156 19.675781 C 29.035156 20.015625 28.902344 20.355469 28.644531 20.617188 C 28.386719 20.875 28.042969 21.003906 27.707031 21.003906 Z M 27.707031 21.003906 "/>
<path style=" stroke:none;fill-rule:nonzero;fill:rgb(28.62854%,31.369019%,34.118652%);fill-opacity:1;" d="M 27.707031 20.117188 L 27.5 20.117188 L 27.5 18.34375 L 27.707031 18.34375 C 28.042969 18.34375 28.386719 18.476562 28.644531 18.734375 C 28.789062 18.878906 28.894531 19.050781 28.957031 19.230469 C 28.894531 19.414062 28.789062 19.582031 28.644531 19.730469 C 28.386719 19.988281 28.042969 20.117188 27.707031 20.117188 Z M 27.707031 20.117188 "/>
</g>
</svg>
