<?xml version="1.0" encoding="UTF-8"?>
<svg xmlns="http://www.w3.org/2000/svg" xmlns:xlink="http://www.w3.org/1999/xlink" width="37.5pt" height="37.499999pt" viewBox="0 0 37.5 37.499999" version="1.2">
<defs>
<clipPath id="clip1">
  <path d="M 0 0 L 37.007812 0 L 37.007812 37.007812 L 0 37.007812 Z M 0 0 "/>
</clipPath>
<clipPath id="clip2">
  <path d="M 3.75 5.195312 L 29 5.195312 L 29 30 L 3.75 30 Z M 3.75 5.195312 "/>
</clipPath>
<clipPath id="clip3">
  <path d="M 6 7 L 31 7 L 31 32.089844 L 6 32.089844 Z M 6 7 "/>
</clipPath>
<clipPath id="clip4">
  <path d="M 32 5.195312 L 35.132812 5.195312 L 35.132812 9 L 32 9 Z M 32 5.195312 "/>
</clipPath>
<clipPath id="clip5">
  <path d="M 23 11 L 35.132812 11 L 35.132812 24 L 23 24 Z M 23 11 "/>
</clipPath>
</defs>
<g id="surface1">
<g clip-path="url(#clip1)" clip-rule="nonzero">
<path style=" stroke:none;fill-rule:nonzero;fill:rgb(100%,92.549133%,63.139343%);fill-opacity:1;" d="M 18.75 0 C 18.136719 0 17.523438 0.03125 16.914062 0.0898438 C 16.300781 0.152344 15.695312 0.242188 15.09375 0.359375 C 14.488281 0.480469 13.894531 0.628906 13.308594 0.808594 C 12.71875 0.984375 12.140625 1.191406 11.574219 1.425781 C 11.007812 1.664062 10.453125 1.925781 9.910156 2.214844 C 9.371094 2.503906 8.84375 2.820312 8.332031 3.160156 C 7.824219 3.5 7.328125 3.867188 6.855469 4.257812 C 6.378906 4.644531 5.925781 5.058594 5.492188 5.492188 C 5.058594 5.925781 4.644531 6.378906 4.257812 6.855469 C 3.867188 7.328125 3.5 7.824219 3.160156 8.332031 C 2.820312 8.84375 2.503906 9.371094 2.214844 9.910156 C 1.925781 10.453125 1.664062 11.007812 1.425781 11.574219 C 1.191406 12.140625 0.984375 12.71875 0.808594 13.308594 C 0.628906 13.894531 0.480469 14.488281 0.359375 15.09375 C 0.242188 15.695312 0.152344 16.300781 0.0898438 16.914062 C 0.03125 17.523438 0 18.136719 0 18.75 C 0 19.363281 0.03125 19.976562 0.0898438 20.585938 C 0.152344 21.199219 0.242188 21.804688 0.359375 22.40625 C 0.480469 23.011719 0.628906 23.605469 0.808594 24.191406 C 0.984375 24.78125 1.191406 25.359375 1.425781 25.925781 C 1.664062 26.492188 1.925781 27.046875 2.214844 27.589844 C 2.503906 28.128906 2.820312 28.65625 3.160156 29.167969 C 3.5 29.675781 3.867188 30.171875 4.257812 30.644531 C 4.644531 31.121094 5.058594 31.574219 5.492188 32.007812 C 5.925781 32.441406 6.378906 32.855469 6.855469 33.242188 C 7.328125 33.632812 7.824219 34 8.332031 34.339844 C 8.84375 34.679688 9.371094 34.996094 9.910156 35.285156 C 10.453125 35.574219 11.007812 35.835938 11.574219 36.074219 C 12.140625 36.308594 12.71875 36.515625 13.308594 36.691406 C 13.894531 36.871094 14.488281 37.019531 15.09375 37.140625 C 15.695312 37.257812 16.300781 37.347656 16.914062 37.410156 C 17.523438 37.46875 18.136719 37.5 18.75 37.5 C 19.363281 37.5 19.976562 37.46875 20.585938 37.410156 C 21.199219 37.347656 21.804688 37.257812 22.40625 37.140625 C 23.011719 37.019531 23.605469 36.871094 24.191406 36.691406 C 24.78125 36.515625 25.359375 36.308594 25.925781 36.074219 C 26.492188 35.835938 27.046875 35.574219 27.589844 35.285156 C 28.128906 34.996094 28.65625 34.679688 29.167969 34.339844 C 29.675781 34 30.171875 33.632812 30.644531 33.242188 C 31.121094 32.855469 31.574219 32.441406 32.007812 32.007812 C 32.441406 31.574219 32.855469 31.121094 33.242188 30.644531 C 33.632812 30.171875 34 29.675781 34.339844 29.167969 C 34.679688 28.65625 34.996094 28.128906 35.285156 27.589844 C 35.574219 27.046875 35.835938 26.492188 36.074219 25.925781 C 36.308594 25.359375 36.515625 24.78125 36.691406 24.191406 C 36.871094 23.605469 37.019531 23.011719 37.140625 22.40625 C 37.257812 21.804688 37.347656 21.199219 37.410156 20.585938 C 37.46875 19.976562 37.5 19.363281 37.5 18.75 C 37.5 18.136719 37.46875 17.523438 37.410156 16.914062 C 37.347656 16.300781 37.257812 15.695312 37.140625 15.09375 C 37.019531 14.488281 36.871094 13.894531 36.691406 13.308594 C 36.515625 12.71875 36.308594 12.140625 36.074219 11.574219 C 35.835938 11.007812 35.574219 10.453125 35.285156 9.910156 C 34.996094 9.371094 34.679688 8.84375 34.339844 8.332031 C 34 7.824219 33.632812 7.328125 33.242188 6.855469 C 32.855469 6.378906 32.441406 5.925781 32.007812 5.492188 C 31.574219 5.058594 31.121094 4.644531 30.644531 4.257812 C 30.171875 3.867188 29.675781 3.5 29.167969 3.160156 C 28.65625 2.820312 28.128906 2.503906 27.589844 2.214844 C 27.046875 1.925781 26.492188 1.664062 25.925781 1.425781 C 25.359375 1.191406 24.78125 0.984375 24.191406 0.808594 C 23.605469 0.628906 23.011719 0.480469 22.40625 0.359375 C 21.804688 0.242188 21.199219 0.152344 20.585938 0.0898438 C 19.976562 0.03125 19.363281 0 18.75 0 Z M 18.75 0 "/>
</g>
<g clip-path="url(#clip2)" clip-rule="nonzero">
<path style=" stroke:none;fill-rule:nonzero;fill:rgb(99.21875%,72.549438%,7.449341%);fill-opacity:1;" d="M 28.371094 5.84375 L 28.371094 7.699219 L 6.953125 7.699219 C 6.59375 7.699219 6.304688 7.988281 6.304688 8.347656 L 6.304688 29.585938 L 4.691406 29.585938 C 4.199219 29.585938 3.800781 29.1875 3.800781 28.695312 L 3.800781 6.550781 C 3.800781 5.800781 4.40625 5.195312 5.15625 5.195312 L 27.722656 5.195312 C 27.789062 5.195312 27.851562 5.203125 27.914062 5.222656 C 28.179688 5.304688 28.371094 5.550781 28.371094 5.84375 Z M 28.371094 5.84375 "/>
</g>
<path style=" stroke:none;fill-rule:nonzero;fill:rgb(95.689392%,50.979614%,12.159729%);fill-opacity:1;" d="M 6.953125 6.832031 C 6.351562 6.832031 5.828125 7.1875 5.585938 7.699219 C 5.507812 7.855469 5.460938 8.027344 5.445312 8.210938 C 5.441406 8.253906 5.4375 8.300781 5.4375 8.347656 L 5.4375 29.585938 L 6.304688 29.585938 L 6.304688 8.347656 C 6.304688 8.300781 6.3125 8.253906 6.320312 8.210938 C 6.382812 7.917969 6.644531 7.699219 6.953125 7.699219 L 28.371094 7.699219 L 28.371094 6.832031 Z M 6.953125 6.832031 "/>
<g clip-path="url(#clip3)" clip-rule="nonzero">
<path style=" stroke:none;fill-rule:nonzero;fill:rgb(99.21875%,72.549438%,7.449341%);fill-opacity:1;" d="M 30.984375 31.199219 C 30.875 31.691406 30.476562 32.089844 29.984375 32.089844 L 7.199219 32.089844 C 6.707031 32.089844 6.304688 31.691406 6.304688 31.199219 L 6.304688 8.347656 C 6.304688 7.988281 6.59375 7.699219 6.953125 7.699219 L 30.230469 7.699219 C 30.296875 7.699219 30.359375 7.710938 30.421875 7.726562 C 30.6875 7.808594 30.878906 8.054688 30.878906 8.347656 Z M 30.984375 31.199219 "/>
</g>
<path style=" stroke:none;fill-rule:nonzero;fill:rgb(100%,92.549133%,63.139343%);fill-opacity:1;" d="M 29.429688 11.886719 L 29.429688 30.449219 C 29.429688 30.558594 29.34375 30.644531 29.238281 30.644531 L 7.945312 30.644531 C 7.835938 30.644531 7.75 30.558594 7.75 30.449219 L 7.75 11.886719 C 7.75 11.78125 7.835938 11.691406 7.945312 11.691406 L 29.234375 11.691406 C 29.34375 11.691406 29.429688 11.78125 29.429688 11.886719 Z M 29.429688 11.886719 "/>
<path style=" stroke:none;fill-rule:nonzero;fill:rgb(100%,100%,100%);fill-opacity:1;" d="M 8.796875 9.261719 C 8.796875 9.378906 8.753906 9.480469 8.671875 9.566406 C 8.585938 9.648438 8.484375 9.691406 8.367188 9.691406 C 8.246094 9.691406 8.148438 9.648438 8.0625 9.566406 C 7.976562 9.480469 7.9375 9.378906 7.9375 9.261719 C 7.9375 9.140625 7.976562 9.039062 8.0625 8.957031 C 8.148438 8.871094 8.246094 8.828125 8.367188 8.828125 C 8.484375 8.828125 8.585938 8.871094 8.671875 8.957031 C 8.753906 9.039062 8.796875 9.140625 8.796875 9.261719 Z M 8.796875 9.261719 "/>
<path style=" stroke:none;fill-rule:nonzero;fill:rgb(100%,100%,100%);fill-opacity:1;" d="M 10.488281 9.261719 C 10.488281 9.378906 10.445312 9.480469 10.359375 9.566406 C 10.277344 9.648438 10.175781 9.691406 10.058594 9.691406 C 9.9375 9.691406 9.835938 9.648438 9.753906 9.566406 C 9.667969 9.480469 9.625 9.378906 9.625 9.261719 C 9.625 9.140625 9.667969 9.039062 9.753906 8.957031 C 9.835938 8.871094 9.9375 8.828125 10.058594 8.828125 C 10.175781 8.828125 10.277344 8.871094 10.359375 8.957031 C 10.445312 9.039062 10.488281 9.140625 10.488281 9.261719 Z M 10.488281 9.261719 "/>
<path style=" stroke:none;fill-rule:nonzero;fill:rgb(100%,100%,100%);fill-opacity:1;" d="M 12.175781 9.261719 C 12.175781 9.378906 12.132812 9.480469 12.050781 9.566406 C 11.964844 9.648438 11.863281 9.691406 11.746094 9.691406 C 11.628906 9.691406 11.527344 9.648438 11.441406 9.566406 C 11.359375 9.480469 11.316406 9.378906 11.316406 9.261719 C 11.316406 9.140625 11.359375 9.039062 11.441406 8.957031 C 11.527344 8.871094 11.628906 8.828125 11.746094 8.828125 C 11.863281 8.828125 11.964844 8.871094 12.050781 8.957031 C 12.132812 9.039062 12.175781 9.140625 12.175781 9.261719 Z M 12.175781 9.261719 "/>
<path style=" stroke:none;fill-rule:nonzero;fill:rgb(100%,100%,100%);fill-opacity:1;" d="M 20.671875 8.792969 L 29.003906 8.792969 L 29.003906 9.660156 L 20.671875 9.660156 Z M 20.671875 8.792969 "/>
<path style=" stroke:none;fill-rule:nonzero;fill:rgb(99.21875%,72.549438%,7.449341%);fill-opacity:1;" d="M 10.085938 26.277344 L 21.726562 26.277344 L 21.726562 27.144531 L 10.085938 27.144531 Z M 10.085938 26.277344 "/>
<path style=" stroke:none;fill-rule:nonzero;fill:rgb(99.21875%,72.549438%,7.449341%);fill-opacity:1;" d="M 15.007812 28.109375 L 26.78125 28.109375 L 26.78125 28.976562 L 15.007812 28.976562 Z M 15.007812 28.109375 "/>
<path style=" stroke:none;fill-rule:nonzero;fill:rgb(99.21875%,72.549438%,7.449341%);fill-opacity:1;" d="M 23.0625 26.246094 L 26.824219 26.246094 L 26.824219 27.113281 L 23.0625 27.113281 Z M 23.0625 26.246094 "/>
<path style=" stroke:none;fill-rule:nonzero;fill:rgb(99.21875%,72.549438%,7.449341%);fill-opacity:1;" d="M 10.101562 28.125 L 13.863281 28.125 L 13.863281 28.992188 L 10.101562 28.992188 Z M 10.101562 28.125 "/>
<path style=" stroke:none;fill-rule:nonzero;fill:rgb(99.21875%,72.549438%,7.449341%);fill-opacity:1;" d="M 19.457031 23.78125 L 10.441406 23.78125 C 10.257812 23.78125 10.105469 23.628906 10.105469 23.445312 L 10.105469 14.289062 C 10.105469 14.105469 10.257812 13.953125 10.441406 13.953125 L 19.457031 13.953125 C 19.640625 13.953125 19.792969 14.105469 19.792969 14.289062 L 19.792969 23.445312 C 19.792969 23.628906 19.640625 23.78125 19.457031 23.78125 Z M 19.457031 23.78125 "/>
<g clip-path="url(#clip4)" clip-rule="nonzero">
<path style=" stroke:none;fill-rule:nonzero;fill:rgb(99.21875%,72.549438%,7.449341%);fill-opacity:1;" d="M 34.863281 7.445312 C 34.382812 7.671875 34.117188 7.9375 33.890625 8.417969 C 33.796875 8.617188 33.507812 8.617188 33.414062 8.417969 C 33.1875 7.9375 32.921875 7.671875 32.441406 7.445312 C 32.242188 7.351562 32.242188 7.0625 32.441406 6.96875 C 32.921875 6.742188 33.1875 6.476562 33.414062 5.996094 C 33.507812 5.796875 33.796875 5.796875 33.890625 5.996094 C 34.117188 6.476562 34.382812 6.742188 34.863281 6.96875 C 35.0625 7.0625 35.0625 7.351562 34.863281 7.445312 Z M 34.863281 7.445312 "/>
</g>
<g clip-path="url(#clip5)" clip-rule="nonzero">
<path style=" stroke:none;fill-rule:nonzero;fill:rgb(0%,72.938538%,85.879517%);fill-opacity:1;" d="M 34.820312 14.03125 L 26.066406 22.78125 L 24.078125 23.113281 C 24.078125 23.105469 24.078125 23.101562 24.078125 23.09375 C 24.078125 22.632812 23.710938 22.261719 23.253906 22.253906 L 23.613281 20.328125 L 32.367188 11.578125 C 32.628906 11.320312 33.046875 11.320312 33.308594 11.578125 L 34.820312 13.09375 C 35.082031 13.351562 35.082031 13.769531 34.820312 14.03125 Z M 34.820312 14.03125 "/>
</g>
<path style=" stroke:none;fill-rule:nonzero;fill:rgb(100%,100%,100%);fill-opacity:1;" d="M 24.214844 19.730469 L 26.667969 22.183594 L 26.054688 22.792969 L 23.601562 20.34375 Z M 24.214844 19.730469 "/>
<path style=" stroke:none;fill-rule:nonzero;fill:rgb(100%,100%,100%);fill-opacity:1;" d="M 24.082031 23.09375 C 24.082031 23.101562 24.082031 23.105469 24.078125 23.113281 L 23.570312 23.199219 C 23.324219 23.238281 23.109375 23.023438 23.15625 22.773438 L 23.253906 22.253906 C 23.710938 22.261719 24.082031 22.632812 24.082031 23.09375 Z M 24.082031 23.09375 "/>
<path style=" stroke:none;fill-rule:nonzero;fill:rgb(99.21875%,72.549438%,7.449341%);fill-opacity:1;" d="M 23.253906 22.253906 L 23.613281 20.328125 L 29.429688 14.515625 L 29.429688 13.289062 L 23 19.71875 L 22.808594 19.90625 L 22.761719 20.171875 L 22.398438 22.09375 L 22.300781 22.613281 C 22.234375 22.976562 22.332031 23.34375 22.566406 23.628906 C 22.800781 23.910156 23.144531 24.070312 23.511719 24.070312 C 23.578125 24.070312 23.644531 24.066406 23.710938 24.054688 L 24.222656 23.96875 L 26.210938 23.636719 L 26.484375 23.589844 L 29.429688 20.644531 L 29.429688 19.417969 L 26.066406 22.78125 L 24.078125 23.113281 L 23.570312 23.199219 C 23.550781 23.203125 23.53125 23.203125 23.511719 23.203125 C 23.289062 23.203125 23.113281 23.003906 23.15625 22.773438 Z M 23.253906 22.253906 "/>
<path style=" stroke:none;fill-rule:nonzero;fill:rgb(95.689392%,50.979614%,12.159729%);fill-opacity:1;" d="M 30.894531 11.824219 L 30.898438 13.046875 L 29.429688 14.515625 L 29.429688 13.289062 Z M 30.894531 11.824219 "/>
<path style=" stroke:none;fill-rule:nonzero;fill:rgb(95.689392%,50.979614%,12.159729%);fill-opacity:1;" d="M 30.921875 17.925781 L 30.929688 19.144531 L 29.429688 20.644531 L 29.429688 19.417969 Z M 30.921875 17.925781 "/>
</g>
</svg>
