<?xml version="1.0" encoding="UTF-8"?>
<svg xmlns="http://www.w3.org/2000/svg" xmlns:xlink="http://www.w3.org/1999/xlink" width="37.5pt" height="37.499999pt" viewBox="0 0 37.5 37.499999" version="1.2">
<defs>
<clipPath id="clip1">
  <path d="M 0 0 L 37.007812 0 L 37.007812 37.007812 L 0 37.007812 Z M 0 0 "/>
</clipPath>
<clipPath id="clip2">
  <path d="M 4.386719 2.089844 L 32.136719 2.089844 L 32.136719 33.4375 L 4.386719 33.4375 Z M 4.386719 2.089844 "/>
</clipPath>
<clipPath id="clip3">
  <path d="M 22 5 L 32.136719 5 L 32.136719 33.4375 L 22 33.4375 Z M 22 5 "/>
</clipPath>
</defs>
<g id="surface1">
<g clip-path="url(#clip1)" clip-rule="nonzero">
<path style=" stroke:none;fill-rule:nonzero;fill:rgb(78.819275%,88.62915%,39.608765%);fill-opacity:1;" d="M 18.75 0 C 18.136719 0 17.523438 0.03125 16.914062 0.0898438 C 16.300781 0.152344 15.695312 0.242188 15.09375 0.359375 C 14.488281 0.480469 13.894531 0.628906 13.308594 0.808594 C 12.71875 0.984375 12.140625 1.191406 11.574219 1.425781 C 11.007812 1.664062 10.453125 1.925781 9.910156 2.214844 C 9.371094 2.503906 8.84375 2.820312 8.332031 3.160156 C 7.824219 3.5 7.328125 3.867188 6.855469 4.257812 C 6.378906 4.644531 5.925781 5.058594 5.492188 5.492188 C 5.058594 5.925781 4.644531 6.378906 4.257812 6.855469 C 3.867188 7.328125 3.5 7.824219 3.160156 8.332031 C 2.820312 8.84375 2.503906 9.371094 2.214844 9.910156 C 1.925781 10.453125 1.664062 11.007812 1.425781 11.574219 C 1.191406 12.140625 0.984375 12.71875 0.808594 13.308594 C 0.628906 13.894531 0.480469 14.488281 0.359375 15.09375 C 0.242188 15.695312 0.152344 16.300781 0.0898438 16.914062 C 0.03125 17.523438 0 18.136719 0 18.75 C 0 19.363281 0.03125 19.976562 0.0898438 20.585938 C 0.152344 21.199219 0.242188 21.804688 0.359375 22.40625 C 0.480469 23.011719 0.628906 23.605469 0.808594 24.191406 C 0.984375 24.78125 1.191406 25.359375 1.425781 25.925781 C 1.664062 26.492188 1.925781 27.046875 2.214844 27.589844 C 2.503906 28.128906 2.820312 28.65625 3.160156 29.167969 C 3.5 29.675781 3.867188 30.171875 4.257812 30.644531 C 4.644531 31.121094 5.058594 31.574219 5.492188 32.007812 C 5.925781 32.441406 6.378906 32.855469 6.855469 33.242188 C 7.328125 33.632812 7.824219 34 8.332031 34.339844 C 8.84375 34.679688 9.371094 34.996094 9.910156 35.285156 C 10.453125 35.574219 11.007812 35.835938 11.574219 36.074219 C 12.140625 36.308594 12.71875 36.515625 13.308594 36.691406 C 13.894531 36.871094 14.488281 37.019531 15.09375 37.140625 C 15.695312 37.257812 16.300781 37.347656 16.914062 37.410156 C 17.523438 37.46875 18.136719 37.5 18.75 37.5 C 19.363281 37.5 19.976562 37.46875 20.585938 37.410156 C 21.199219 37.347656 21.804688 37.257812 22.40625 37.140625 C 23.011719 37.019531 23.605469 36.871094 24.191406 36.691406 C 24.78125 36.515625 25.359375 36.308594 25.925781 36.074219 C 26.492188 35.835938 27.046875 35.574219 27.589844 35.285156 C 28.128906 34.996094 28.65625 34.679688 29.167969 34.339844 C 29.675781 34 30.171875 33.632812 30.644531 33.242188 C 31.121094 32.855469 31.574219 32.441406 32.007812 32.007812 C 32.441406 31.574219 32.855469 31.121094 33.242188 30.644531 C 33.632812 30.171875 34 29.675781 34.339844 29.167969 C 34.679688 28.65625 34.996094 28.128906 35.285156 27.589844 C 35.574219 27.046875 35.835938 26.492188 36.074219 25.925781 C 36.308594 25.359375 36.515625 24.78125 36.691406 24.191406 C 36.871094 23.605469 37.019531 23.011719 37.140625 22.40625 C 37.257812 21.804688 37.347656 21.199219 37.410156 20.585938 C 37.46875 19.976562 37.5 19.363281 37.5 18.75 C 37.5 18.136719 37.46875 17.523438 37.410156 16.914062 C 37.347656 16.300781 37.257812 15.695312 37.140625 15.09375 C 37.019531 14.488281 36.871094 13.894531 36.691406 13.308594 C 36.515625 12.71875 36.308594 12.140625 36.074219 11.574219 C 35.835938 11.007812 35.574219 10.453125 35.285156 9.910156 C 34.996094 9.371094 34.679688 8.84375 34.339844 8.332031 C 34 7.824219 33.632812 7.328125 33.242188 6.855469 C 32.855469 6.378906 32.441406 5.925781 32.007812 5.492188 C 31.574219 5.058594 31.121094 4.644531 30.644531 4.257812 C 30.171875 3.867188 29.675781 3.5 29.167969 3.160156 C 28.65625 2.820312 28.128906 2.503906 27.589844 2.214844 C 27.046875 1.925781 26.492188 1.664062 25.925781 1.425781 C 25.359375 1.191406 24.78125 0.984375 24.191406 0.808594 C 23.605469 0.628906 23.011719 0.480469 22.40625 0.359375 C 21.804688 0.242188 21.199219 0.152344 20.585938 0.0898438 C 19.976562 0.03125 19.363281 0 18.75 0 Z M 18.75 0 "/>
</g>
<g clip-path="url(#clip2)" clip-rule="nonzero">
<path style=" stroke:none;fill-rule:nonzero;fill:rgb(48.629761%,70.199585%,25.878906%);fill-opacity:1;" d="M 28.734375 8.242188 C 28.714844 8.078125 28.566406 8.007812 28.457031 8.007812 C 28.34375 8.007812 25.921875 7.824219 25.921875 7.824219 C 25.921875 7.824219 24.234375 6.164062 24.03125 6 C 23.847656 5.816406 23.496094 5.871094 23.347656 5.90625 C 23.328125 5.90625 22.976562 6.015625 22.402344 6.199219 C 21.828125 4.574219 20.847656 3.09375 19.089844 3.09375 L 18.921875 3.09375 C 18.441406 2.472656 17.8125 2.183594 17.292969 2.183594 C 13.21875 2.183594 11.257812 7.203125 10.648438 9.757812 C 9.054688 10.253906 7.925781 10.582031 7.796875 10.636719 C 6.90625 10.910156 6.890625 10.929688 6.777344 11.75 C 6.683594 12.371094 4.371094 30.023438 4.371094 30.023438 L 22.382812 33.347656 L 32.160156 31.265625 C 32.175781 31.230469 28.753906 8.410156 28.734375 8.242188 Z M 21.402344 6.453125 C 20.957031 6.582031 20.421875 6.746094 19.886719 6.929688 L 19.886719 6.601562 C 19.886719 5.613281 19.753906 4.8125 19.515625 4.171875 C 20.441406 4.28125 21.015625 5.285156 21.402344 6.453125 Z M 18.386719 4.375 C 18.625 4.992188 18.792969 5.871094 18.792969 7.074219 L 18.792969 7.257812 C 17.792969 7.566406 16.738281 7.878906 15.644531 8.226562 C 16.253906 5.925781 17.421875 4.792969 18.386719 4.375 Z M 17.199219 3.242188 C 17.382812 3.242188 17.570312 3.3125 17.71875 3.421875 C 16.402344 4.027344 15.015625 5.542969 14.441406 8.609375 C 13.570312 8.882812 12.738281 9.121094 11.941406 9.375 C 12.609375 7.039062 14.273438 3.242188 17.199219 3.242188 Z M 17.199219 3.242188 "/>
</g>
<g clip-path="url(#clip3)" clip-rule="nonzero">
<path style=" stroke:none;fill-rule:nonzero;fill:rgb(33.329773%,54.508972%,18.429565%);fill-opacity:1;" d="M 28.457031 7.96875 C 28.34375 7.96875 25.921875 7.789062 25.921875 7.789062 C 25.921875 7.789062 24.234375 6.125 24.03125 5.960938 C 23.957031 5.886719 23.863281 5.851562 23.789062 5.851562 L 22.4375 33.347656 L 32.214844 31.265625 C 32.214844 31.265625 28.789062 8.410156 28.769531 8.242188 C 28.695312 8.078125 28.566406 8.007812 28.457031 7.96875 Z M 28.457031 7.96875 "/>
</g>
<path style=" stroke:none;fill-rule:nonzero;fill:rgb(100%,100%,100%);fill-opacity:1;" d="M 18.917969 13.550781 L 17.753906 17.019531 C 17.753906 17.019531 16.695312 16.460938 15.441406 16.460938 C 13.566406 16.460938 13.472656 17.628906 13.472656 17.917969 C 13.472656 19.496094 17.660156 20.105469 17.660156 23.824219 C 17.660156 26.75 15.785156 28.636719 13.253906 28.636719 C 10.195312 28.636719 8.667969 26.769531 8.667969 26.769531 L 9.484375 24.113281 C 9.484375 24.113281 11.089844 25.476562 12.4375 25.476562 C 13.328125 25.476562 13.691406 24.792969 13.691406 24.292969 C 13.691406 22.226562 10.269531 22.136719 10.269531 18.726562 C 10.269531 15.871094 12.34375 13.105469 16.550781 13.105469 C 18.117188 13.085938 18.917969 13.550781 18.917969 13.550781 Z M 18.917969 13.550781 "/>
</g>
</svg>
