<?xml version="1.0" encoding="UTF-8"?>
<svg xmlns="http://www.w3.org/2000/svg" xmlns:xlink="http://www.w3.org/1999/xlink" width="37.5pt" height="37.499999pt" viewBox="0 0 37.5 37.499999" version="1.2">
<defs>
<clipPath id="clip1">
  <path d="M 0 0 L 37.007812 0 L 37.007812 37.007812 L 0 37.007812 Z M 0 0 "/>
</clipPath>
</defs>
<g id="surface1">
<g clip-path="url(#clip1)" clip-rule="nonzero">
<path style=" stroke:none;fill-rule:nonzero;fill:rgb(100%,42.749023%,23.139954%);fill-opacity:1;" d="M 37.5 18.75 C 37.5 19.363281 37.46875 19.976562 37.410156 20.585938 C 37.347656 21.199219 37.257812 21.804688 37.140625 22.40625 C 37.019531 23.011719 36.871094 23.605469 36.691406 24.191406 C 36.515625 24.78125 36.308594 25.359375 36.074219 25.925781 C 35.835938 26.492188 35.574219 27.046875 35.285156 27.589844 C 34.996094 28.128906 34.679688 28.65625 34.339844 29.167969 C 34 29.675781 33.632812 30.171875 33.242188 30.644531 C 32.855469 31.121094 32.441406 31.574219 32.007812 32.007812 C 31.574219 32.441406 31.121094 32.855469 30.644531 33.242188 C 30.171875 33.632812 29.675781 34 29.167969 34.339844 C 28.65625 34.679688 28.128906 34.996094 27.589844 35.285156 C 27.046875 35.574219 26.492188 35.835938 25.925781 36.074219 C 25.359375 36.308594 24.78125 36.515625 24.191406 36.691406 C 23.605469 36.871094 23.011719 37.019531 22.40625 37.140625 C 21.804688 37.257812 21.199219 37.347656 20.585938 37.410156 C 19.976562 37.46875 19.363281 37.5 18.75 37.5 C 18.136719 37.5 17.523438 37.46875 16.914062 37.410156 C 16.300781 37.347656 15.695312 37.257812 15.09375 37.140625 C 14.488281 37.019531 13.894531 36.871094 13.308594 36.691406 C 12.71875 36.515625 12.140625 36.308594 11.574219 36.074219 C 11.007812 35.835938 10.453125 35.574219 9.910156 35.285156 C 9.371094 34.996094 8.84375 34.679688 8.332031 34.339844 C 7.824219 34 7.328125 33.632812 6.855469 33.242188 C 6.378906 32.855469 5.925781 32.441406 5.492188 32.007812 C 5.058594 31.574219 4.644531 31.121094 4.257812 30.644531 C 3.867188 30.171875 3.5 29.675781 3.160156 29.167969 C 2.820312 28.65625 2.503906 28.128906 2.214844 27.589844 C 1.925781 27.046875 1.664062 26.492188 1.425781 25.925781 C 1.191406 25.359375 0.984375 24.78125 0.808594 24.191406 C 0.628906 23.605469 0.480469 23.011719 0.359375 22.40625 C 0.242188 21.804688 0.152344 21.199219 0.0898438 20.585938 C 0.03125 19.976562 0 19.363281 0 18.75 C 0 18.136719 0.03125 17.523438 0.0898438 16.914062 C 0.152344 16.300781 0.242188 15.695312 0.359375 15.09375 C 0.480469 14.488281 0.628906 13.894531 0.808594 13.308594 C 0.984375 12.71875 1.191406 12.140625 1.425781 11.574219 C 1.664062 11.007812 1.925781 10.453125 2.214844 9.910156 C 2.503906 9.371094 2.820312 8.84375 3.160156 8.332031 C 3.5 7.824219 3.867188 7.328125 4.257812 6.855469 C 4.644531 6.378906 5.058594 5.925781 5.492188 5.492188 C 5.925781 5.058594 6.378906 4.644531 6.855469 4.257812 C 7.328125 3.867188 7.824219 3.5 8.332031 3.160156 C 8.84375 2.820312 9.371094 2.503906 9.910156 2.214844 C 10.453125 1.925781 11.007812 1.664062 11.574219 1.425781 C 12.140625 1.191406 12.71875 0.984375 13.308594 0.808594 C 13.894531 0.628906 14.488281 0.480469 15.09375 0.359375 C 15.695312 0.242188 16.300781 0.152344 16.914062 0.0898438 C 17.523438 0.03125 18.136719 0 18.75 0 C 19.363281 0 19.976562 0.03125 20.585938 0.0898438 C 21.199219 0.152344 21.804688 0.242188 22.40625 0.359375 C 23.011719 0.480469 23.605469 0.628906 24.191406 0.808594 C 24.78125 0.984375 25.359375 1.191406 25.925781 1.425781 C 26.492188 1.664062 27.046875 1.925781 27.589844 2.214844 C 28.128906 2.503906 28.65625 2.820312 29.167969 3.160156 C 29.675781 3.5 30.171875 3.867188 30.644531 4.257812 C 31.121094 4.644531 31.574219 5.058594 32.007812 5.492188 C 32.441406 5.925781 32.855469 6.378906 33.242188 6.855469 C 33.632812 7.328125 34 7.824219 34.339844 8.332031 C 34.679688 8.84375 34.996094 9.371094 35.285156 9.910156 C 35.574219 10.453125 35.835938 11.007812 36.074219 11.574219 C 36.308594 12.140625 36.515625 12.71875 36.691406 13.308594 C 36.871094 13.894531 37.019531 14.488281 37.140625 15.09375 C 37.257812 15.695312 37.347656 16.300781 37.410156 16.914062 C 37.46875 17.523438 37.5 18.136719 37.5 18.75 Z M 37.5 18.75 "/>
</g>
<path style=" stroke:none;fill-rule:nonzero;fill:rgb(100%,100%,100%);fill-opacity:1;" d="M 35.566406 5.140625 L 35.566406 27.054688 C 34.929688 28.339844 34.152344 29.539062 33.253906 30.632812 C 33.035156 30.902344 32.804688 31.164062 32.574219 31.417969 C 32.113281 31.917969 31.628906 32.390625 31.121094 32.839844 L 12.652344 32.839844 L 12.652344 5.140625 Z M 35.566406 5.140625 "/>
<path style=" stroke:none;fill-rule:nonzero;fill:rgb(100%,42.749023%,23.139954%);fill-opacity:1;" d="M 24.554688 6.5625 L 33.804688 6.5625 L 33.804688 8.949219 L 24.554688 8.949219 Z M 24.554688 6.5625 "/>
<path style=" stroke:none;fill-rule:nonzero;fill:rgb(100%,42.749023%,23.139954%);fill-opacity:1;" d="M 14.414062 6.5625 L 23.65625 6.5625 L 23.65625 8.949219 L 14.414062 8.949219 Z M 14.414062 6.5625 "/>
<path style=" stroke:none;fill-rule:nonzero;fill:rgb(79.998779%,79.60968%,79.219055%);fill-opacity:1;" d="M 14.414062 28.914062 L 33.804688 28.914062 L 33.804688 29.699219 L 14.414062 29.699219 Z M 14.414062 28.914062 "/>
<path style=" stroke:none;fill-rule:nonzero;fill:rgb(79.998779%,79.60968%,79.219055%);fill-opacity:1;" d="M 33.253906 30.632812 C 33.035156 30.902344 32.804688 31.164062 32.574219 31.417969 L 14.410156 31.417969 L 14.410156 30.632812 Z M 33.253906 30.632812 "/>
<path style=" stroke:none;fill-rule:nonzero;fill:rgb(8.628845%,77.648926%,79.998779%);fill-opacity:1;" d="M 14.414062 15.738281 L 33.804688 15.738281 L 33.804688 27.980469 L 14.414062 27.980469 Z M 14.414062 15.738281 "/>
<path style=" stroke:none;fill-rule:nonzero;fill:rgb(79.998779%,79.60968%,79.219055%);fill-opacity:1;" d="M 14.414062 9.878906 L 33.804688 9.878906 L 33.804688 14.804688 L 14.414062 14.804688 Z M 14.414062 9.878906 "/>
<path style=" stroke:none;fill-rule:nonzero;fill:rgb(14.118958%,17.649841%,23.529053%);fill-opacity:1;" d="M 12.648438 2.753906 L 35.566406 2.753906 L 35.566406 5.140625 L 12.648438 5.140625 Z M 12.648438 2.753906 "/>
<path style=" stroke:none;fill-rule:nonzero;fill:rgb(14.118958%,17.649841%,23.529053%);fill-opacity:1;" d="M 17.296875 9.878906 L 8.003906 9.878906 C 7.125 9.878906 6.402344 10.601562 6.402344 11.484375 L 6.402344 31.238281 C 6.402344 32.117188 7.125 32.839844 8.003906 32.839844 L 17.296875 32.839844 C 18.175781 32.839844 18.894531 32.117188 18.894531 31.238281 L 18.894531 11.484375 C 18.894531 10.601562 18.175781 9.878906 17.296875 9.878906 Z M 17.296875 9.878906 "/>
<path style=" stroke:none;fill-rule:nonzero;fill:rgb(100%,100%,100%);fill-opacity:1;" d="M 7.308594 13.351562 L 17.988281 13.351562 L 17.988281 29.367188 L 7.308594 29.367188 Z M 7.308594 13.351562 "/>
<path style=" stroke:none;fill-rule:nonzero;fill:rgb(24.308777%,28.62854%,34.899902%);fill-opacity:1;" d="M 11.660156 31.597656 C 11.421875 31.597656 11.230469 31.40625 11.230469 31.167969 L 11.230469 31.039062 C 11.230469 30.800781 11.421875 30.609375 11.660156 30.609375 L 13.640625 30.609375 C 13.875 30.609375 14.066406 30.800781 14.066406 31.039062 L 14.066406 31.167969 C 14.066406 31.40625 13.875 31.597656 13.640625 31.597656 Z M 11.660156 31.597656 "/>
<path style=" stroke:none;fill-rule:nonzero;fill:rgb(24.308777%,28.62854%,34.899902%);fill-opacity:1;" d="M 13.050781 11.617188 C 13.050781 11.839844 12.875 12.015625 12.648438 12.015625 C 12.429688 12.015625 12.246094 11.839844 12.246094 11.617188 C 12.246094 11.394531 12.429688 11.210938 12.648438 11.210938 C 12.875 11.210938 13.050781 11.394531 13.050781 11.617188 Z M 13.050781 11.617188 "/>
<path style=" stroke:none;fill-rule:nonzero;fill:rgb(14.118958%,17.649841%,23.529053%);fill-opacity:1;" d="M 12.8125 11.617188 C 12.8125 11.703125 12.738281 11.773438 12.648438 11.773438 C 12.5625 11.773438 12.488281 11.703125 12.488281 11.617188 C 12.488281 11.527344 12.5625 11.453125 12.648438 11.453125 C 12.738281 11.453125 12.8125 11.527344 12.8125 11.617188 Z M 12.8125 11.617188 "/>
<path style=" stroke:none;fill-rule:nonzero;fill:rgb(8.628845%,77.648926%,79.998779%);fill-opacity:1;" d="M 17.179688 21.359375 C 17.179688 23.863281 15.148438 25.890625 12.648438 25.890625 C 10.148438 25.890625 8.117188 23.863281 8.117188 21.359375 C 8.117188 18.859375 10.148438 16.828125 12.648438 16.828125 C 15.148438 16.828125 17.179688 18.859375 17.179688 21.359375 Z M 17.179688 21.359375 "/>
<path style=" stroke:none;fill-rule:nonzero;fill:rgb(14.118958%,17.649841%,23.529053%);fill-opacity:1;" d="M 13.878906 19.007812 L 11.414062 19.007812 L 11.246094 22.59375 L 14.046875 22.59375 Z M 13.878906 19.007812 "/>
<path style=" stroke:none;fill-rule:nonzero;fill:rgb(100%,100%,100%);fill-opacity:1;" d="M 15.363281 23.148438 C 15.328125 23.027344 15.261719 22.910156 15.167969 22.808594 C 15.074219 22.710938 14.964844 22.632812 14.84375 22.585938 L 13.570312 22.082031 C 13.507812 22.054688 13.449219 22.011719 13.40625 21.949219 C 13.363281 21.886719 13.34375 21.816406 13.34375 21.75 L 13.34375 21.128906 L 11.953125 21.128906 L 11.953125 21.75 C 11.953125 21.816406 11.929688 21.886719 11.890625 21.949219 C 11.847656 22.011719 11.789062 22.054688 11.726562 22.082031 L 10.453125 22.585938 C 10.332031 22.632812 10.222656 22.710938 10.128906 22.808594 C 10.035156 22.910156 9.96875 23.027344 9.929688 23.148438 L 9.679688 23.949219 L 15.617188 23.949219 Z M 15.363281 23.148438 "/>
<path style=" stroke:none;fill-rule:nonzero;fill:rgb(94.509888%,32.939148%,14.118958%);fill-opacity:1;" d="M 10.925781 23.0625 C 10.925781 23.378906 10.878906 23.699219 10.792969 23.949219 L 14.503906 23.949219 C 14.417969 23.699219 14.371094 23.378906 14.371094 23.0625 C 14.371094 22.835938 14.394531 22.621094 14.441406 22.429688 L 14.101562 22.292969 L 13.953125 22.882812 C 13.882812 23.164062 13.722656 23.425781 13.476562 23.617188 C 13.230469 23.8125 12.957031 23.894531 12.648438 23.894531 C 12.339844 23.894531 12.066406 23.8125 11.820312 23.617188 C 11.574219 23.425781 11.410156 23.164062 11.34375 22.882812 L 11.195312 22.292969 L 10.855469 22.429688 C 10.902344 22.621094 10.925781 22.835938 10.925781 23.0625 Z M 10.925781 23.0625 "/>
<path style=" stroke:none;fill-rule:nonzero;fill:rgb(100%,100%,100%);fill-opacity:1;" d="M 12.648438 17.972656 C 11.886719 17.972656 11.34375 18.53125 11.34375 19.707031 C 11.34375 20.699219 11.925781 21.542969 12.648438 21.542969 C 13.367188 21.542969 13.953125 20.699219 13.953125 19.707031 C 13.953125 18.53125 13.410156 17.972656 12.648438 17.972656 Z M 12.648438 17.972656 "/>
<path style=" stroke:none;fill-rule:nonzero;fill:rgb(14.118958%,17.649841%,23.529053%);fill-opacity:1;" d="M 13.820312 18.039062 L 11.476562 18.039062 C 11.476562 18.039062 11.3125 19.207031 11.523438 19.445312 C 11.53125 19.351562 11.617188 19.320312 11.773438 19.320312 C 11.773438 19.320312 11.902344 19.175781 11.996094 18.773438 C 12.070312 19.046875 12.035156 19.332031 12.035156 19.332031 C 12.203125 19.34375 12.40625 19.363281 12.648438 19.363281 C 12.710938 19.363281 12.765625 19.359375 12.824219 19.359375 C 12.824219 19.359375 12.894531 19.316406 12.925781 19.210938 C 12.96875 19.269531 12.976562 19.351562 12.976562 19.351562 C 13.476562 19.324219 13.757812 19.265625 13.773438 19.445312 C 13.984375 19.207031 13.820312 18.039062 13.820312 18.039062 Z M 13.820312 18.039062 "/>
<path style=" stroke:none;fill-rule:nonzero;fill:rgb(14.118958%,17.649841%,23.529053%);fill-opacity:1;" d="M 11.726562 22.082031 C 11.789062 22.054688 11.847656 22.011719 11.890625 21.949219 C 11.929688 21.886719 11.953125 21.816406 11.953125 21.75 L 11.953125 21.484375 L 11.5625 21.484375 C 11.507812 21.117188 11.480469 20.75 11.480469 20.40625 C 11.480469 19.382812 11.550781 19 11.832031 18.65625 C 12.199219 18.210938 12.648438 18.117188 12.648438 18.117188 C 12.648438 18.117188 13.097656 18.210938 13.464844 18.65625 C 13.746094 19 13.816406 19.382812 13.816406 20.40625 C 13.816406 20.75 13.789062 21.117188 13.738281 21.484375 L 13.34375 21.484375 L 13.34375 21.75 C 13.34375 21.816406 13.363281 21.886719 13.40625 21.949219 C 13.449219 22.011719 13.507812 22.054688 13.570312 22.082031 L 14.300781 22.371094 C 14.390625 22.257812 14.433594 22.125 14.433594 21.988281 L 14.433594 21.484375 C 14.433594 20.636719 14.410156 19.535156 14.230469 18.726562 C 14.074219 18.035156 13.484375 17.371094 12.648438 17.550781 C 11.8125 17.371094 11.222656 18.035156 11.066406 18.726562 C 10.886719 19.535156 10.863281 20.636719 10.863281 21.484375 L 10.863281 21.988281 C 10.863281 22.125 10.90625 22.257812 11 22.371094 Z M 11.726562 22.082031 "/>
</g>
</svg>
