<?xml version="1.0" encoding="UTF-8"?>
<svg xmlns="http://www.w3.org/2000/svg" xmlns:xlink="http://www.w3.org/1999/xlink" width="375pt" height="69.749997pt" viewBox="0 0 375 69.749997" version="1.2">
<defs>
<clipPath id="clip1">
  <path d="M 0.667969 0 L 374.328125 0 L 374.328125 69.5 L 0.667969 69.5 Z M 0.667969 0 "/>
</clipPath>
</defs>
<g id="surface1">
<g clip-path="url(#clip1)" clip-rule="nonzero">
<path style=" stroke:none;fill-rule:evenodd;fill:rgb(74.899292%,100%,64.709473%);fill-opacity:1;" d="M 359.605469 6.101562 C 357.476562 5.351562 354.640625 5.070312 351.761719 4.824219 C 351.957031 4.675781 352.03125 4.445312 352.007812 4.160156 C 350.394531 4.105469 349.71875 4.660156 347.96875 4.523438 C 348.511719 4.175781 348.074219 3.890625 347.207031 4.027344 C 347.707031 3.601562 349.273438 3.863281 349.230469 4.34375 C 349.550781 4.296875 349.488281 4.011719 349.230469 4.011719 C 353.34375 4.238281 357.582031 3.546875 361.105469 4.253906 C 359.039062 2.820312 352.324219 2.851562 349.214844 2.015625 C 349.410156 1.628906 350.777344 1.84375 350.480469 2.339844 C 350.816406 2.167969 351.421875 2.171875 351.488281 1.832031 C 354.230469 2.378906 357.34375 2.582031 360.082031 2.4375 C 363.207031 3.632812 367.417969 4.105469 369.203125 6.199219 C 369.316406 7.550781 368.957031 8.269531 369.226562 9.359375 C 368.421875 10.769531 367.535156 12.125 365.96875 13.042969 C 367.070312 14.410156 367.714844 15.441406 367.769531 16.859375 C 367.4375 17.132812 365.910156 17.472656 367.015625 17.699219 C 366.492188 17.910156 365.953125 18.109375 365.507812 18.375 C 365.632812 18.808594 366.902344 18.925781 366.269531 19.367188 C 365.394531 19.507812 365.300781 19.125 364.503906 19.210938 C 364.695312 20.1875 366.550781 20.597656 367.050781 21.855469 C 367.664062 23.40625 366.515625 25.265625 366.582031 27.1875 C 364.109375 27.203125 364.988281 29.648438 361.542969 29.386719 C 364.144531 30.449219 367.941406 31.546875 371.164062 31.644531 C 371.742188 32.316406 372.574219 34.105469 371.183594 34.636719 C 371.480469 34.941406 371.847656 35.195312 372.203125 35.464844 C 371.671875 35.878906 369.621094 35.484375 370.4375 36.308594 C 367.914062 36.722656 364.652344 36.125 362.871094 37.527344 C 362.898438 37.953125 363.816406 37.789062 364.136719 38.019531 C 364.21875 38.441406 363.671875 38.992188 363.894531 39.351562 C 365.3125 39.699219 364.609375 39.980469 365.921875 40.003906 C 365.609375 40.464844 365.128906 40.816406 364.160156 40.847656 C 364.929688 41.277344 366.347656 41.273438 366.691406 41.992188 C 363.8125 42.789062 362.554688 42.246094 359.367188 42.382812 C 363.9375 43.222656 368.027344 44.390625 371.773438 45.785156 C 371.820312 46.511719 371.871094 47.238281 371.277344 47.121094 C 371.753906 47.640625 372.128906 47.253906 372.539062 46.945312 C 372.8125 48.378906 372.957031 49.253906 374.332031 50.09375 C 373.832031 51.277344 372.070312 50.8125 370.546875 51.121094 C 370.773438 51.917969 371.117188 52.636719 372.328125 52.769531 C 371.535156 54.289062 367.238281 54.078125 365.773438 54.648438 C 366.355469 55.640625 367.933594 54.820312 369.3125 54.621094 C 368.964844 55.300781 369.863281 55.144531 369.824219 55.617188 C 365.328125 55.785156 364.925781 57.148438 360.230469 56.6875 C 360.105469 61.019531 356.792969 63.289062 355 66.542969 C 352.804688 66.136719 351.835938 66.871094 350.710938 67.574219 C 350.597656 68.039062 352.085938 67.429688 351.972656 67.894531 C 350 68.476562 347.226562 68.386719 344.402344 68.617188 C 341.761719 68.835938 339.535156 68.84375 337.832031 68.171875 C 324.824219 69.820312 314.632812 68.519531 300.949219 69.273438 C 300.722656 68.742188 301.78125 69.042969 301.699219 68.605469 C 297.496094 68.585938 290.125 69.832031 286.039062 68.886719 C 285.226562 69.042969 285.679688 68.347656 285.277344 68.222656 C 282.082031 68.324219 279.207031 69.394531 277.191406 68.285156 C 272.648438 68.03125 267.613281 69.394531 264.304688 68.378906 C 251.027344 68.609375 240.332031 69.210938 229.183594 67.976562 C 222.832031 67.667969 217.648438 68.109375 211.242188 67.777344 C 212.140625 66.980469 214.253906 66.96875 216.035156 66.742188 C 213.699219 66.46875 209.894531 66.414062 206.6875 66.644531 C 195.960938 67.421875 184.785156 67.167969 173.84375 66.722656 C 173.335938 66.339844 173.902344 66.539062 174.089844 66.222656 C 171.9375 65.6875 169.683594 66.433594 167.777344 66.601562 C 167.300781 66.289062 167.746094 66.183594 167.769531 65.769531 C 165.609375 65.554688 166.246094 66.269531 164.996094 66.453125 C 163.820312 66.609375 165.34375 66.023438 164.488281 65.957031 C 163.949219 65.886719 164.007812 66.199219 163.988281 66.460938 C 161.089844 66.234375 158.773438 66.085938 155.394531 66.359375 C 154.355469 66.445312 155.589844 65.941406 154.886719 65.699219 C 150.636719 65.640625 144.609375 66.609375 139.984375 66.140625 C 137.789062 65.921875 136.398438 66.167969 133.917969 66.191406 C 131.796875 66.207031 129.722656 65.332031 127.34375 65.074219 C 125.386719 64.863281 122.472656 65.542969 119.511719 65.128906 C 119.566406 64.890625 120.261719 65.066406 120.261719 64.792969 C 111.667969 65.089844 101.121094 65.132812 92.984375 65.992188 C 83.167969 65.355469 71.808594 66.96875 62.925781 66.878906 C 63.140625 66.628906 63.558594 66.515625 64.1875 66.539062 C 55.5 65.871094 42.160156 65.753906 31.085938 66.121094 C 30.039062 66.214844 30.011719 66.96875 28.566406 66.800781 C 27.898438 67.757812 25.863281 67.824219 24.535156 68.164062 C 24.300781 68.222656 23.546875 68.664062 23.273438 68.671875 C 19.238281 68.84375 20.441406 65.769531 18.1875 64.21875 C 16.996094 64.707031 15.761719 64.898438 14.648438 64.246094 C 14.734375 63.191406 16.578125 63.289062 17.164062 62.5625 C 16.839844 62.328125 15.746094 62.027344 15.652344 62.574219 C 15.078125 62.238281 15.085938 61.707031 15.640625 61.410156 C 14.746094 61.324219 15.027344 62.003906 14.132812 61.917969 C 14.019531 61.570312 14.300781 61.476562 14.382812 61.25 C 13.574219 61.15625 13.601562 61.566406 13.113281 61.261719 C 13.046875 60.222656 13.175781 59.3125 14.109375 58.921875 C 9.03125 57.863281 4.914062 55.160156 0.667969 53.035156 C 0.78125 52.003906 2.066406 51.730469 2.167969 50.695312 C 5.265625 50.082031 7.253906 49.777344 11.003906 49.628906 C 11.601562 49.300781 10.535156 48.703125 11.246094 48.296875 C 12.308594 48.453125 13.792969 48.40625 14.527344 47.605469 C 13.601562 47.367188 13.144531 47.558594 12 47.292969 C 12.167969 46.90625 12.839844 46.839844 13.003906 46.453125 C 11.398438 45.5 13.953125 44.015625 12.976562 42.957031 C 13.40625 42.570312 14.402344 43.21875 15.253906 43.109375 C 13.925781 42.597656 16.609375 42.8125 17.015625 42.429688 C 16.910156 42.082031 14.90625 42.804688 15.5 42.105469 C 12.972656 42.367188 13.714844 42 11.710938 42.136719 C 12.015625 39.605469 15.902344 38.625 20.015625 37.414062 C 19.4375 36.910156 18.480469 35.945312 18.988281 35.257812 C 18.644531 34.941406 17.570312 35.546875 16.96875 35.605469 C 16.96875 35.109375 17.621094 35.035156 17.71875 34.601562 C 17.117188 34.203125 17.246094 34.855469 16.457031 34.777344 C 17.199219 33.796875 18.570312 34.113281 19.734375 33.589844 C 18.585938 32.957031 17.382812 33.5625 15.941406 33.617188 C 16.050781 33.355469 16.734375 33.46875 16.445312 32.949219 C 15.726562 32.925781 15.953125 33.515625 14.929688 33.292969 C 14.804688 32.769531 15.703125 32.910156 15.429688 32.289062 C 14.128906 32.484375 12.539062 32.644531 11.390625 32.484375 C 11.382812 31.875 12.269531 31.84375 12.644531 31.480469 C 11.808594 31.207031 11.21875 31.652344 10.121094 31.664062 C 10.015625 30.929688 10.011719 30.160156 11.878906 29.988281 C 11.792969 29.601562 11.914062 29.347656 12.125 29.148438 C 11.0625 28.683594 10.601562 28.96875 8.332031 28.84375 C 7.929688 28.101562 9.378906 27.542969 9.074219 27.011719 C 8.378906 25.796875 6.972656 26.027344 5.015625 26.042969 C 5.828125 25.371094 5.449219 24.9375 6.269531 24.367188 C 5.007812 23.871094 5.9375 23.253906 6 22.207031 C 6.453125 22.183594 6.535156 22.40625 7.011719 22.367188 C 7.585938 20.585938 12.007812 21.296875 12.546875 19.5 C 11.378906 19.167969 12.101562 17.570312 11.015625 17.175781 C 12.425781 15 11.15625 11.085938 15.769531 10.984375 C 15.5 10.269531 14.675781 9.933594 13.234375 10.003906 C 13.464844 9.242188 12.695312 9.140625 11.714844 9.183594 C 12.117188 8.335938 12.273438 8.277344 11.199219 7.859375 C 12.347656 6.390625 12.050781 4.917969 13.183594 2.851562 C 23.625 3.429688 38.105469 3.398438 47.304688 3.925781 C 47.546875 3.921875 47.496094 3.722656 47.554688 3.589844 C 49.554688 4.511719 52.648438 3.976562 54.625 3.375 C 54.492188 3.507812 54.363281 3.644531 54.378906 3.875 C 55.480469 3.984375 55.796875 3.582031 56.902344 3.691406 C 59.074219 4.042969 67.125 3 72.304688 2.910156 C 77.988281 2.816406 83.90625 2.039062 86.695312 1.304688 C 87.601562 2.730469 90.492188 2.179688 93.523438 2.085938 C 94.292969 2.019531 93.957031 2.691406 94.539062 2.746094 C 96.085938 2.003906 100.585938 3.144531 102.367188 2.1875 C 102.515625 1.753906 102.261719 1.589844 101.609375 1.691406 C 103.398438 1.105469 105.644531 1.75 107.667969 1.3125 C 107.5 1.148438 107.085938 1.148438 107.160156 0.816406 C 110.613281 1.003906 114.28125 1.550781 116.519531 2.414062 C 117.746094 2.070312 118.507812 2.585938 119.554688 2.722656 C 122.558594 3.117188 127.09375 2.351562 130.667969 2.308594 C 141.683594 2.167969 152.507812 3.082031 162.757812 2.402344 C 162.925781 2.570312 163.339844 2.570312 163.265625 2.898438 C 171.265625 2.769531 177.640625 2.167969 185.492188 2.234375 C 185.566406 1.792969 184.964844 1.808594 184.476562 1.742188 C 186.488281 1.5625 188.378906 2.183594 190.042969 2.53125 C 191.792969 1.367188 193.148438 2.691406 195.601562 2.65625 C 195.746094 3.023438 195.121094 2.898438 195.097656 3.164062 C 203.316406 3.734375 210.667969 1.144531 219.09375 2.484375 C 219.417969 2.195312 219.921875 2.027344 220.605469 1.976562 C 220.371094 3.039062 218.03125 2.734375 216.824219 3.164062 C 220.699219 3.191406 225.371094 2.648438 229.964844 3.566406 C 231.5625 2.007812 236.136719 2.953125 239.808594 2.496094 C 239.882812 2.765625 239.574219 2.785156 239.558594 3 C 240.753906 2.980469 241.480469 3.277344 242.597656 3.308594 C 242.613281 2.742188 241.65625 2.824219 240.824219 2.824219 C 242.839844 1.996094 245.667969 3.417969 246.625 1.777344 C 247.996094 1.972656 248.914062 1.972656 249.65625 1.421875 C 249.730469 1.691406 249.421875 1.710938 249.40625 1.925781 C 256.402344 2.851562 264.363281 2.738281 273.414062 2.746094 C 273.296875 2.101562 271.671875 2.464844 271.136719 2.097656 C 279.714844 1.269531 289.394531 3.730469 298.167969 1.898438 C 296.914062 1.378906 294.078125 1.480469 293.109375 1.269531 C 292.585938 1.175781 291.453125 1.488281 291.339844 1.117188 C 294.222656 1.183594 295.21875 0.6875 297.65625 0.738281 C 298.046875 0.546875 298.175781 0.191406 298.914062 0.230469 C 298.367188 0.582031 299.042969 0.703125 298.921875 1.226562 C 300.015625 1.382812 300.320312 1.03125 300.941406 0.878906 C 302.328125 1.609375 303.609375 1.320312 305.238281 0.847656 C 314.007812 2.464844 325.207031 1.039062 335.054688 1.621094 C 332.675781 2.445312 329.144531 1.617188 326.976562 2.683594 C 327.414062 3.113281 329.484375 2.457031 329.007812 3.5 C 330.085938 3.59375 330.03125 2.949219 331.023438 2.988281 C 331.347656 3.203125 331.351562 3.601562 331.03125 3.820312 C 333.082031 3.417969 336.886719 3.492188 339.371094 4.425781 C 338.613281 4.429688 337.855469 4.4375 337.09375 4.441406 C 342.347656 4.839844 350.457031 5.804688 356.5625 5.628906 C 357.109375 6.480469 357.632812 5.652344 359.605469 6.101562 Z M 177.925781 3.289062 C 179.175781 3.199219 180.496094 3.398438 179.441406 3.941406 C 180.472656 4 180.734375 3.566406 181.457031 3.429688 C 180.390625 3.425781 180.859375 3.054688 181.199219 2.765625 C 180.226562 3.375 178.074219 2.191406 177.925781 3.289062 Z M 300.707031 2.210938 C 300.390625 2.175781 300.1875 1.953125 300.199219 2.378906 C 301.496094 2.347656 302.726562 2.195312 303.484375 2.351562 C 303.40625 1.644531 301.296875 1.769531 300.707031 2.210938 Z M 231 6.386719 C 230.761719 6.996094 232.417969 6.734375 232.265625 6.378906 C 231.636719 6.367188 231.480469 6.074219 231 6.386719 Z M 232.773438 6.707031 C 233.621094 6.59375 235.121094 6.90625 235.550781 6.523438 C 234.203125 6.441406 233.640625 5.980469 232.773438 6.707031 Z M 195.1875 14.644531 C 195.910156 15.144531 197.335938 14.519531 197.464844 15.128906 C 198.214844 15.132812 198.746094 14.628906 199.234375 14.949219 C 199.230469 14.726562 199.230469 14.507812 199.226562 14.28125 C 197.976562 14.464844 196.25 14.339844 195.1875 14.644531 Z M 313.492188 22.753906 C 314.246094 22.582031 315.328125 22.613281 315.507812 22.074219 C 314.515625 22.089844 313.289062 21.960938 313.492188 22.753906 Z M 319.058594 23.875 C 322.554688 23.546875 317.542969 23.394531 317.035156 23.890625 C 317.875 23.851562 318.535156 23.921875 319.058594 23.875 Z M 89.976562 34.730469 C 90.175781 34.863281 91.523438 34.894531 91.488281 34.386719 C 90.820312 34.394531 90 34.304688 89.976562 34.730469 Z M 165.335938 43.824219 C 165.65625 43.207031 163.832031 43.171875 163.5625 43.503906 C 164.554688 43.339844 164.207031 44.078125 165.335938 43.824219 Z M 169.375 43.792969 C 171.621094 44.078125 173.496094 43.785156 176.199219 43.90625 C 174.816406 43.671875 170.773438 43.15625 169.375 43.792969 Z M 182.515625 43.863281 C 182.117188 43.851562 181.640625 43.894531 181.757812 43.535156 C 180.226562 43.886719 177.902344 43.511719 176.703125 43.574219 C 179.480469 44.121094 180.800781 44.246094 182.515625 43.863281 Z M 155.992188 44.726562 C 154.273438 44.996094 151.851562 44.296875 151.195312 44.925781 C 154.15625 45.371094 160.703125 45.550781 164.078125 44.828125 C 161.40625 44.660156 159.773438 44.265625 157.257812 44.550781 C 159.21875 45.152344 155.5 44.339844 155.488281 44.394531 C 155.769531 44.429688 155.878906 44.578125 155.992188 44.726562 Z M 184.289062 44.515625 C 184.878906 44.511719 185.464844 44.507812 186.054688 44.5 C 186.15625 43.832031 184.339844 44.238281 184.289062 44.515625 Z M 164.839844 44.824219 C 164.683594 44.835938 164.539062 44.855469 164.585938 44.992188 C 165.695312 45.074219 169.132812 44.855469 166.351562 44.8125 C 165.824219 44.453125 165.535156 44.96875 165.085938 44.65625 C 165.070312 44.554688 165.046875 44.460938 164.832031 44.488281 C 164.835938 44.601562 164.835938 44.714844 164.839844 44.824219 Z M 150.445312 45.929688 C 150.191406 46.265625 149.503906 46.320312 149.1875 46.605469 C 154.683594 46.863281 164.070312 46.636719 170.40625 46.445312 C 164.796875 45.550781 157.082031 46.5 150.445312 45.929688 Z M 331.902344 52.570312 C 334.496094 53.625 338.265625 54.011719 341.511719 53.832031 C 338.199219 53.683594 334.558594 52.050781 331.902344 52.570312 Z M 320.796875 54.316406 C 321.609375 54.816406 323.753906 54.710938 324.585938 54.289062 C 324.519531 54.671875 324.652344 54.914062 325.097656 54.953125 C 325.53125 54.609375 324.90625 54.628906 325.34375 54.28125 C 323.945312 53.628906 322.464844 53.964844 320.796875 54.316406 Z M 316.25 54.515625 C 317.261719 54.453125 317.652344 54.804688 318.777344 54.664062 C 318.691406 53.816406 316.265625 54.171875 316.25 54.515625 Z M 338.242188 55.851562 C 339.066406 55.992188 339.8125 55.964844 341.273438 55.996094 C 341.246094 55.230469 339.085938 55.710938 338.242188 55.851562 Z M 113.179688 63.515625 C 112.554688 63.800781 110.726562 63.214844 109.894531 63.707031 C 110.457031 64.210938 112.808594 64.113281 113.179688 63.515625 Z M 223.09375 64.367188 C 222.167969 64.496094 221.6875 63.964844 221.070312 64.382812 C 222.011719 65.136719 224.113281 64.898438 225.871094 64.84375 C 228.710938 64.753906 231.386719 64.332031 234.207031 64.617188 C 231.523438 63.703125 225.191406 64.210938 223.09375 64.367188 Z M 238.25 64.417969 C 239.363281 64.621094 241.96875 64.433594 243.554688 64.042969 C 241.703125 64.246094 238.511719 63.421875 238.25 64.417969 Z M 253.660156 63.96875 C 253.609375 64.707031 251.191406 63.914062 251.140625 64.65625 C 252.40625 64.917969 253.308594 64.691406 254.425781 64.464844 C 254.550781 64.902344 254.628906 65.023438 255.191406 65.457031 C 260.445312 63.992188 265.542969 66.324219 270.597656 64.84375 C 265.03125 64.121094 259.214844 64.925781 253.660156 63.96875 Z M 207.175781 64.980469 C 205.890625 64.984375 204.261719 64.273438 203.644531 65.34375 C 208.191406 65.609375 212.707031 65.484375 217.28125 64.578125 C 214 64.558594 210.355469 64.972656 207.175781 64.980469 Z M 207.175781 64.980469 "/>
</g>
</g>
</svg>
