<?xml version="1.0" encoding="UTF-8"?>
<svg xmlns="http://www.w3.org/2000/svg" xmlns:xlink="http://www.w3.org/1999/xlink" width="162pt" height="30.000001pt" viewBox="0 0 162 30.000001" version="1.2">
<defs>
<clipPath id="clip1">
  <path d="M 2.613281 0 L 159.386719 0 L 159.386719 29 L 2.613281 29 Z M 2.613281 0 "/>
</clipPath>
</defs>
<g id="surface1">
<g clip-path="url(#clip1)" clip-rule="nonzero">
<path style=" stroke:none;fill-rule:evenodd;fill:rgb(14.509583%,10.978699%,18.818665%);fill-opacity:1;" d="M 153.207031 2.550781 C 152.316406 2.234375 151.125 2.117188 149.917969 2.015625 C 150 1.953125 150.03125 1.859375 150.023438 1.738281 C 149.34375 1.714844 149.058594 1.949219 148.328125 1.890625 C 148.554688 1.746094 148.371094 1.625 148.007812 1.683594 C 148.21875 1.503906 148.875 1.613281 148.855469 1.816406 C 148.992188 1.796875 148.964844 1.675781 148.855469 1.675781 C 150.582031 1.769531 152.359375 1.484375 153.839844 1.777344 C 152.972656 1.179688 150.152344 1.191406 148.851562 0.84375 C 148.933594 0.683594 149.503906 0.769531 149.382812 0.976562 C 149.519531 0.90625 149.773438 0.910156 149.804688 0.765625 C 150.953125 0.992188 152.261719 1.078125 153.410156 1.019531 C 154.71875 1.519531 156.488281 1.714844 157.238281 2.589844 C 157.285156 3.15625 157.132812 3.457031 157.246094 3.910156 C 156.910156 4.5 156.535156 5.066406 155.878906 5.449219 C 156.339844 6.019531 156.613281 6.453125 156.632812 7.042969 C 156.496094 7.15625 155.855469 7.300781 156.320312 7.394531 C 156.097656 7.480469 155.871094 7.566406 155.683594 7.675781 C 155.738281 7.859375 156.269531 7.90625 156.003906 8.089844 C 155.636719 8.148438 155.597656 7.988281 155.261719 8.027344 C 155.34375 8.433594 156.121094 8.605469 156.332031 9.128906 C 156.589844 9.777344 156.109375 10.554688 156.136719 11.355469 C 155.097656 11.363281 155.46875 12.386719 154.023438 12.273438 C 155.113281 12.71875 156.707031 13.175781 158.058594 13.21875 C 158.300781 13.5 158.652344 14.246094 158.066406 14.46875 C 158.191406 14.59375 158.34375 14.703125 158.492188 14.8125 C 158.273438 14.988281 157.410156 14.824219 157.753906 15.167969 C 156.695312 15.339844 155.328125 15.089844 154.578125 15.675781 C 154.589844 15.855469 154.976562 15.785156 155.109375 15.882812 C 155.144531 16.058594 154.914062 16.289062 155.007812 16.4375 C 155.605469 16.582031 155.308594 16.699219 155.859375 16.710938 C 155.730469 16.902344 155.527344 17.050781 155.121094 17.0625 C 155.445312 17.242188 156.039062 17.242188 156.183594 17.542969 C 154.972656 17.875 154.445312 17.648438 153.109375 17.703125 C 155.027344 18.054688 156.742188 18.542969 158.3125 19.125 C 158.335938 19.429688 158.355469 19.734375 158.105469 19.683594 C 158.304688 19.902344 158.464844 19.738281 158.636719 19.609375 C 158.75 20.207031 158.8125 20.574219 159.386719 20.925781 C 159.175781 21.421875 158.4375 21.226562 157.800781 21.355469 C 157.894531 21.6875 158.039062 21.988281 158.546875 22.042969 C 158.214844 22.675781 156.414062 22.589844 155.796875 22.828125 C 156.039062 23.242188 156.703125 22.898438 157.28125 22.816406 C 157.136719 23.097656 157.511719 23.035156 157.496094 23.234375 C 155.609375 23.300781 155.441406 23.871094 153.472656 23.679688 C 153.417969 25.488281 152.027344 26.4375 151.277344 27.796875 C 150.355469 27.625 149.949219 27.933594 149.476562 28.226562 C 149.429688 28.421875 150.054688 28.167969 150.007812 28.359375 C 149.179688 28.605469 148.015625 28.566406 146.828125 28.664062 C 145.722656 28.753906 144.789062 28.757812 144.074219 28.476562 C 138.617188 29.164062 134.339844 28.621094 128.597656 28.9375 C 128.503906 28.714844 128.949219 28.839844 128.914062 28.65625 C 127.148438 28.648438 124.058594 29.167969 122.34375 28.773438 C 122 28.839844 122.191406 28.550781 122.023438 28.5 C 120.683594 28.539062 119.476562 28.988281 118.632812 28.523438 C 116.726562 28.417969 114.613281 28.988281 113.222656 28.5625 C 107.652344 28.660156 103.164062 28.910156 98.488281 28.394531 C 95.824219 28.265625 93.648438 28.449219 90.960938 28.3125 C 91.339844 27.980469 92.226562 27.972656 92.972656 27.878906 C 91.992188 27.765625 90.394531 27.742188 89.050781 27.839844 C 84.550781 28.164062 79.863281 28.058594 75.269531 27.871094 C 75.058594 27.710938 75.296875 27.792969 75.375 27.660156 C 74.472656 27.4375 73.523438 27.75 72.726562 27.820312 C 72.527344 27.691406 72.710938 27.644531 72.722656 27.472656 C 71.816406 27.382812 72.082031 27.683594 71.558594 27.757812 C 71.066406 27.824219 71.703125 27.578125 71.34375 27.550781 C 71.117188 27.519531 71.144531 27.652344 71.136719 27.761719 C 69.917969 27.667969 68.949219 27.605469 67.53125 27.71875 C 67.09375 27.753906 67.613281 27.542969 67.316406 27.441406 C 65.535156 27.417969 63.003906 27.824219 61.0625 27.628906 C 60.144531 27.535156 59.558594 27.640625 58.519531 27.648438 C 57.628906 27.65625 56.757812 27.289062 55.761719 27.183594 C 54.9375 27.09375 53.714844 27.378906 52.472656 27.207031 C 52.496094 27.105469 52.789062 27.179688 52.789062 27.066406 C 49.183594 27.191406 44.757812 27.207031 41.34375 27.566406 C 37.226562 27.300781 32.460938 27.972656 28.734375 27.9375 C 28.824219 27.832031 29 27.785156 29.261719 27.792969 C 25.617188 27.515625 20.019531 27.46875 15.375 27.617188 C 14.933594 27.660156 14.921875 27.972656 14.316406 27.902344 C 14.035156 28.304688 13.183594 28.332031 12.625 28.472656 C 12.527344 28.5 12.210938 28.683594 12.097656 28.683594 C 10.402344 28.757812 10.910156 27.472656 9.960938 26.824219 C 9.460938 27.027344 8.945312 27.109375 8.476562 26.835938 C 8.511719 26.394531 9.289062 26.4375 9.535156 26.132812 C 9.398438 26.035156 8.9375 25.910156 8.898438 26.136719 C 8.65625 26 8.660156 25.777344 8.894531 25.652344 C 8.519531 25.617188 8.636719 25.898438 8.261719 25.863281 C 8.214844 25.71875 8.332031 25.679688 8.367188 25.585938 C 8.027344 25.546875 8.039062 25.71875 7.835938 25.589844 C 7.804688 25.15625 7.859375 24.777344 8.253906 24.613281 C 6.121094 24.171875 4.394531 23.042969 2.613281 22.152344 C 2.660156 21.722656 3.199219 21.609375 3.242188 21.175781 C 4.539062 20.921875 5.375 20.792969 6.949219 20.730469 C 7.199219 20.59375 6.753906 20.34375 7.050781 20.175781 C 7.496094 20.238281 8.121094 20.21875 8.425781 19.886719 C 8.039062 19.785156 7.847656 19.867188 7.367188 19.753906 C 7.4375 19.59375 7.71875 19.566406 7.789062 19.402344 C 7.113281 19.007812 8.1875 18.386719 7.777344 17.945312 C 7.957031 17.78125 8.375 18.054688 8.730469 18.007812 C 8.175781 17.792969 9.300781 17.882812 9.472656 17.722656 C 9.425781 17.578125 8.585938 17.878906 8.835938 17.589844 C 7.773438 17.699219 8.085938 17.542969 7.246094 17.601562 C 7.375 16.542969 9.003906 16.136719 10.730469 15.628906 C 10.488281 15.417969 10.085938 15.015625 10.296875 14.730469 C 10.152344 14.59375 9.703125 14.847656 9.453125 14.871094 C 9.453125 14.664062 9.726562 14.636719 9.765625 14.453125 C 9.515625 14.285156 9.566406 14.558594 9.234375 14.527344 C 9.546875 14.117188 10.125 14.25 10.609375 14.03125 C 10.128906 13.765625 9.625 14.019531 9.019531 14.042969 C 9.066406 13.933594 9.351562 13.980469 9.230469 13.765625 C 8.929688 13.753906 9.027344 14 8.597656 13.90625 C 8.542969 13.6875 8.921875 13.746094 8.804688 13.488281 C 8.261719 13.570312 7.59375 13.636719 7.109375 13.570312 C 7.109375 13.316406 7.480469 13.300781 7.636719 13.148438 C 7.285156 13.035156 7.039062 13.222656 6.578125 13.226562 C 6.535156 12.921875 6.53125 12.597656 7.316406 12.527344 C 7.28125 12.363281 7.332031 12.257812 7.417969 12.175781 C 6.972656 11.980469 6.777344 12.101562 5.828125 12.050781 C 5.660156 11.738281 6.265625 11.503906 6.140625 11.28125 C 5.847656 10.777344 5.257812 10.871094 4.4375 10.878906 C 4.777344 10.597656 4.617188 10.417969 4.960938 10.179688 C 4.433594 9.972656 4.824219 9.714844 4.847656 9.277344 C 5.039062 9.265625 5.074219 9.359375 5.273438 9.34375 C 5.515625 8.597656 7.371094 8.898438 7.597656 8.144531 C 7.105469 8.007812 7.410156 7.339844 6.953125 7.175781 C 7.542969 6.265625 7.011719 4.632812 8.949219 4.589844 C 8.835938 4.289062 8.488281 4.148438 7.886719 4.179688 C 7.980469 3.859375 7.660156 3.820312 7.246094 3.835938 C 7.417969 3.484375 7.480469 3.457031 7.03125 3.28125 C 7.511719 2.671875 7.386719 2.054688 7.863281 1.191406 C 12.242188 1.433594 18.320312 1.421875 22.179688 1.640625 C 22.28125 1.636719 22.261719 1.554688 22.285156 1.5 C 23.125 1.886719 24.421875 1.660156 25.25 1.410156 C 25.195312 1.464844 25.140625 1.523438 25.148438 1.621094 C 25.609375 1.664062 25.742188 1.496094 26.207031 1.542969 C 27.117188 1.6875 30.496094 1.253906 32.667969 1.21875 C 35.054688 1.175781 37.535156 0.851562 38.707031 0.546875 C 39.085938 1.140625 40.296875 0.910156 41.570312 0.871094 C 41.894531 0.84375 41.753906 1.125 41.996094 1.148438 C 42.644531 0.835938 44.535156 1.3125 45.28125 0.914062 C 45.34375 0.734375 45.238281 0.664062 44.960938 0.707031 C 45.714844 0.460938 46.65625 0.734375 47.503906 0.550781 C 47.433594 0.480469 47.261719 0.480469 47.292969 0.34375 C 48.742188 0.421875 50.28125 0.648438 51.21875 1.007812 C 51.734375 0.867188 52.054688 1.082031 52.492188 1.136719 C 53.753906 1.304688 55.65625 0.984375 57.15625 0.964844 C 61.777344 0.90625 66.320312 1.289062 70.621094 1.003906 C 70.6875 1.074219 70.863281 1.074219 70.832031 1.210938 C 74.1875 1.15625 76.863281 0.90625 80.15625 0.933594 C 80.1875 0.75 79.9375 0.757812 79.730469 0.726562 C 80.574219 0.652344 81.371094 0.914062 82.066406 1.058594 C 82.800781 0.570312 83.371094 1.125 84.398438 1.109375 C 84.460938 1.265625 84.199219 1.210938 84.1875 1.320312 C 87.636719 1.5625 90.71875 0.480469 94.253906 1.039062 C 94.390625 0.917969 94.601562 0.847656 94.890625 0.824219 C 94.792969 1.269531 93.808594 1.144531 93.304688 1.324219 C 94.929688 1.335938 96.890625 1.105469 98.816406 1.492188 C 99.488281 0.839844 101.40625 1.234375 102.949219 1.042969 C 102.976562 1.15625 102.847656 1.164062 102.84375 1.253906 C 103.34375 1.246094 103.648438 1.371094 104.117188 1.382812 C 104.121094 1.144531 103.722656 1.179688 103.371094 1.179688 C 104.21875 0.835938 105.40625 1.429688 105.808594 0.742188 C 106.382812 0.824219 106.765625 0.824219 107.078125 0.59375 C 107.109375 0.707031 106.980469 0.714844 106.972656 0.804688 C 109.910156 1.191406 113.25 1.144531 117.046875 1.148438 C 116.996094 0.878906 116.316406 1.03125 116.089844 0.878906 C 119.691406 0.53125 123.75 1.558594 127.429688 0.792969 C 126.90625 0.578125 125.714844 0.617188 125.308594 0.53125 C 125.089844 0.492188 124.613281 0.625 124.566406 0.46875 C 125.777344 0.496094 126.195312 0.289062 127.21875 0.308594 C 127.382812 0.230469 127.4375 0.0820312 127.746094 0.0976562 C 127.515625 0.242188 127.800781 0.296875 127.75 0.515625 C 128.207031 0.578125 128.335938 0.429688 128.597656 0.367188 C 129.179688 0.675781 129.714844 0.550781 130.398438 0.355469 C 134.078125 1.03125 138.777344 0.433594 142.910156 0.679688 C 141.910156 1.023438 140.429688 0.675781 139.519531 1.121094 C 139.703125 1.300781 140.570312 1.027344 140.371094 1.460938 C 140.824219 1.503906 140.800781 1.234375 141.21875 1.25 C 141.355469 1.339844 141.355469 1.503906 141.21875 1.597656 C 142.082031 1.429688 143.679688 1.460938 144.71875 1.847656 C 144.402344 1.851562 144.085938 1.855469 143.765625 1.855469 C 145.96875 2.023438 149.371094 2.425781 151.933594 2.351562 C 152.164062 2.707031 152.382812 2.363281 153.207031 2.550781 Z M 76.980469 1.375 C 77.507812 1.335938 78.0625 1.421875 77.621094 1.648438 C 78.050781 1.671875 78.160156 1.492188 78.464844 1.433594 C 78.015625 1.433594 78.214844 1.277344 78.355469 1.15625 C 77.949219 1.410156 77.046875 0.917969 76.980469 1.375 Z M 128.496094 0.925781 C 128.363281 0.910156 128.28125 0.816406 128.285156 0.992188 C 128.828125 0.980469 129.34375 0.917969 129.664062 0.984375 C 129.628906 0.6875 128.746094 0.738281 128.496094 0.925781 Z M 99.25 2.667969 C 99.152344 2.921875 99.84375 2.8125 99.78125 2.664062 C 99.519531 2.660156 99.453125 2.539062 99.25 2.667969 Z M 99.996094 2.804688 C 100.351562 2.753906 100.980469 2.886719 101.160156 2.726562 C 100.59375 2.691406 100.359375 2.5 99.996094 2.804688 Z M 84.226562 6.117188 C 84.527344 6.328125 85.125 6.066406 85.179688 6.320312 C 85.496094 6.320312 85.71875 6.109375 85.921875 6.246094 C 85.921875 6.152344 85.921875 6.058594 85.921875 5.964844 C 85.394531 6.042969 84.671875 5.992188 84.226562 6.117188 Z M 133.859375 9.503906 C 134.179688 9.433594 134.632812 9.445312 134.707031 9.21875 C 134.292969 9.226562 133.777344 9.171875 133.859375 9.503906 Z M 136.195312 9.972656 C 137.664062 9.835938 135.5625 9.773438 135.347656 9.980469 C 135.699219 9.964844 135.976562 9.992188 136.195312 9.972656 Z M 40.082031 14.507812 C 40.164062 14.5625 40.730469 14.578125 40.714844 14.363281 C 40.4375 14.367188 40.09375 14.332031 40.082031 14.507812 Z M 71.699219 18.304688 C 71.835938 18.046875 71.070312 18.035156 70.957031 18.171875 C 71.371094 18.105469 71.226562 18.410156 71.699219 18.304688 Z M 73.394531 18.292969 C 74.339844 18.414062 75.125 18.289062 76.257812 18.339844 C 75.679688 18.242188 73.984375 18.027344 73.394531 18.292969 Z M 78.910156 18.324219 C 78.742188 18.316406 78.542969 18.335938 78.589844 18.183594 C 77.949219 18.332031 76.972656 18.175781 76.46875 18.199219 C 77.636719 18.429688 78.1875 18.480469 78.910156 18.324219 Z M 67.78125 18.683594 C 67.058594 18.796875 66.042969 18.503906 65.765625 18.765625 C 67.011719 18.953125 69.757812 19.027344 71.171875 18.726562 C 70.054688 18.65625 69.367188 18.492188 68.3125 18.609375 C 69.132812 18.863281 67.574219 18.519531 67.570312 18.542969 C 67.6875 18.558594 67.734375 18.621094 67.78125 18.683594 Z M 79.652344 18.59375 C 79.902344 18.59375 80.144531 18.589844 80.394531 18.589844 C 80.4375 18.308594 79.675781 18.480469 79.652344 18.59375 Z M 71.492188 18.722656 C 71.425781 18.730469 71.367188 18.738281 71.386719 18.792969 C 71.851562 18.828125 73.292969 18.738281 72.125 18.71875 C 71.90625 18.570312 71.785156 18.785156 71.597656 18.652344 C 71.589844 18.613281 71.578125 18.570312 71.488281 18.585938 C 71.492188 18.632812 71.492188 18.679688 71.492188 18.722656 Z M 65.453125 19.1875 C 65.347656 19.324219 65.058594 19.347656 64.925781 19.46875 C 67.230469 19.578125 71.167969 19.480469 73.828125 19.402344 C 71.476562 19.027344 68.238281 19.425781 65.453125 19.1875 Z M 141.585938 21.957031 C 142.675781 22.398438 144.253906 22.5625 145.617188 22.484375 C 144.226562 22.425781 142.699219 21.742188 141.585938 21.957031 Z M 136.925781 22.6875 C 137.265625 22.898438 138.167969 22.855469 138.515625 22.679688 C 138.488281 22.835938 138.542969 22.9375 138.730469 22.953125 C 138.914062 22.8125 138.648438 22.820312 138.832031 22.675781 C 138.246094 22.402344 137.625 22.542969 136.925781 22.6875 Z M 135.019531 22.773438 C 135.441406 22.746094 135.609375 22.890625 136.078125 22.835938 C 136.042969 22.480469 135.027344 22.628906 135.019531 22.773438 Z M 144.246094 23.332031 C 144.589844 23.390625 144.90625 23.375 145.519531 23.390625 C 145.507812 23.070312 144.601562 23.269531 144.246094 23.332031 Z M 49.816406 26.53125 C 49.554688 26.652344 48.789062 26.40625 48.441406 26.613281 C 48.675781 26.820312 49.664062 26.78125 49.816406 26.53125 Z M 95.933594 26.886719 C 95.542969 26.941406 95.34375 26.71875 95.085938 26.894531 C 95.480469 27.207031 96.363281 27.109375 97.101562 27.085938 C 98.289062 27.046875 99.414062 26.871094 100.597656 26.992188 C 99.46875 26.609375 96.8125 26.820312 95.933594 26.886719 Z M 102.292969 26.90625 C 102.757812 26.992188 103.855469 26.914062 104.519531 26.753906 C 103.742188 26.835938 102.402344 26.492188 102.292969 26.90625 Z M 108.757812 26.722656 C 108.734375 27.03125 107.722656 26.699219 107.703125 27.007812 C 108.230469 27.117188 108.609375 27.023438 109.078125 26.929688 C 109.132812 27.109375 109.164062 27.160156 109.402344 27.339844 C 111.605469 26.730469 113.742188 27.703125 115.863281 27.085938 C 113.527344 26.785156 111.089844 27.121094 108.757812 26.722656 Z M 89.257812 27.144531 C 88.714844 27.144531 88.03125 26.847656 87.773438 27.292969 C 89.683594 27.40625 91.578125 27.351562 93.496094 26.972656 C 92.117188 26.96875 90.589844 27.140625 89.257812 27.144531 Z M 89.257812 27.144531 "/>
</g>
</g>
</svg>
